<svg width="808" height="202" viewBox="0 0 808 202" fill="none" xmlns="http://www.w3.org/2000/svg">
<path d="M802.66 128.28C797.73 135.79 791.93 141.87 785.26 146.54C778.59 151.2 771.68 154.03 764.56 155.01C773.05 142.8 777.3 130.93 777.3 119.41C777.3 114.1 776.69 109.67 775.48 106.1C771.54 94.42 761.91 88.58 746.59 88.58C736.96 88.58 727.06 91.58 716.9 97.56C724.41 81.41 735.97 61.09 751.59 36.59C749.69 33.56 746.7 32.04 742.6 32.04C738.88 32.04 735.93 33.29 733.73 35.79C725.77 44.89 716.17 57.56 704.95 73.78C682.9 105.4 670.05 128.88 666.31 144.28C663.92 146.14 661.44 147.81 658.82 149.25C650.21 153.99 641.06 156.36 631.35 156.36C615.8 156.36 605.83 152.42 601.43 144.53C611.82 143.32 621.03 141.34 629.07 138.62C633.62 137.11 637.9 135.3 641.92 133.22C645.94 131.14 649.46 128.71 652.5 125.94C655.53 123.17 657.94 120.08 659.72 116.67C661.5 113.26 662.39 109.79 662.39 106.26C662.39 102.73 661.74 99.91 660.46 97.79C656.82 91.65 650.11 88.58 640.33 88.58C626.75 88.58 613.45 91.73 600.41 98.02C594.27 100.9 588.58 104.35 583.35 108.37C578.12 112.39 573.61 116.77 569.81 121.51C566.02 126.25 563.04 131.24 560.88 136.47C559.9 138.84 559.18 141.32 558.64 143.89C556.1 145.91 553.44 147.72 550.64 149.26C542.03 154 532.88 156.37 523.17 156.37C507.62 156.37 497.65 152.43 493.26 144.54C503.65 143.33 512.86 141.35 520.9 138.63C525.45 137.12 529.73 135.31 533.75 133.23C537.77 131.15 541.3 128.72 544.33 125.95C547.36 123.18 549.77 120.09 551.55 116.68C553.33 113.27 554.22 109.8 554.22 106.27C554.22 102.74 553.58 99.92 552.29 97.8C548.65 91.66 541.94 88.59 532.16 88.59C518.58 88.59 505.28 91.74 492.24 98.03C486.1 100.91 480.41 104.36 475.18 108.38C469.95 112.4 465.43 116.78 461.64 121.52C457.85 126.26 454.87 131.25 452.71 136.48C451.76 138.79 451.05 141.21 450.52 143.72C442.26 150.03 432.85 153.2 422.29 153.2C406.97 153.2 399.31 147.51 399.31 136.14C399.31 127.88 403.06 117.49 410.57 104.97C425.51 108.54 436.24 110.32 442.76 110.32C445.41 110.32 447.77 106.26 449.81 98.15C445.94 97.92 435.33 96.29 417.96 93.26C426.91 80.29 436.5 68.8 446.74 58.8C445.53 57.28 443.86 55.96 441.74 54.82C440.75 54.29 439.79 53.85 438.84 53.51C437.89 53.17 436.81 53 435.6 53C434.39 53 432.3 53.91 429.34 55.73C419.63 61.8 408.07 72.98 394.65 89.28L377.47 86.44C376.71 87.8 376.18 89.62 375.88 91.9C375.8 92.89 375.88 93.76 376.11 94.52C376.34 95.28 376.94 95.83 377.93 96.17C378.91 96.51 380.2 96.91 381.8 97.36C383.39 97.81 385.14 98.35 387.03 98.95C376.22 113.38 368.48 126.02 363.81 136.88C360.89 140.12 357.76 143.04 354.38 145.59C347.48 150.67 341.19 153.21 335.5 153.21C327.08 153.21 322.87 149.68 322.87 142.63C322.87 140.96 323.21 139.22 323.89 137.4C326.09 131.71 329.88 126.44 335.27 121.59C336.33 121.59 337.39 121.1 338.45 120.11C342.32 116.85 344.52 112.6 345.05 107.37C327.31 106.39 312.59 103.05 300.92 97.36C303.5 91.75 304.79 87.75 304.79 85.36C304.79 82.97 304.03 81.06 302.52 79.61C298.65 75.82 293 73.92 285.57 73.92C283.14 73.92 279.39 77.03 274.31 83.25C268.92 89.62 266.23 94.85 266.23 98.95C266.23 105.62 270.21 110.78 278.17 114.42C273.29 127.7 265.18 138.82 253.88 147.8C248.25 151.39 243.07 153.21 238.36 153.21C234.04 153.21 231.88 149.78 231.88 142.92C231.88 136.06 234.34 125.73 239.27 111.92C240.64 108.05 241.92 104.49 243.14 101.23C244.35 97.97 245.45 95.15 246.44 92.76C247.43 90.37 248.07 88.69 248.37 87.7C245.11 86.87 242.04 86.45 239.16 86.45C238.25 86.45 236.98 86.66 235.35 87.08C233.72 87.5 231.88 88.92 229.83 91.34C227.25 89.45 222.97 88.5 216.98 88.5C201.21 88.5 185.93 91.95 171.14 98.85C156.88 105.52 145.36 114.17 136.56 124.78C133.38 128.6 130.79 132.47 128.73 136.37C117.68 149.27 104.1 156.09 87.9701 156.83C69.7401 157.66 60.3201 151.31 59.7001 137.78C59.2501 127.95 63.1501 115.38 71.4001 100.08L79.5601 85.74C88.3801 71.62 105.39 47.28 117.24 33.26L127.37 36.68C142.22 41.75 153.95 45.34 162.57 47.46C168.02 48.82 173.18 49.84 178.06 50.49C182.94 51.15 187.31 51.3 191.19 50.96C194.58 50.64 197.55 49.92 200.08 48.71C200.14 48.69 200.19 48.67 200.23 48.65C200.55 48.5 200.87 48.35 201.16 48.18C201.2 48.16 201.24 48.12 201.28 48.1C206.6 45.33 210.26 39.8 210.26 33.39C210.26 31.57 209.96 29.8 209.41 28.17V28.15C207.78 23.23 203.91 19.35 199.04 17.67H199.02C197.32 17.08 195.5 16.76 193.61 16.76C184.42 16.76 176.98 24.21 176.98 33.39V33.43C174.65 35.62 168.07 35.28 157.21 32.47C151.86 31.09 145.82 29.25 139.07 26.98C132.32 24.71 125.17 22.29 117.64 19.7C110.09 17.13 102.36 14.56 94.4101 12.02C86.4501 9.46998 78.6001 7.28999 70.8201 5.43999C63.0601 3.58999 55.5701 2.21998 48.3301 1.29998C41.1201 0.389979 34.5001 0.319977 28.5101 1.10998C22.5101 1.86998 17.2701 3.58998 12.7701 6.26998C8.25009 8.91998 4.77009 13.04 2.33009 18.62C0.870091 21.95 0.170115 25.68 0.230115 29.84C0.230115 30.75 0.270109 31.66 0.380109 32.53C1.44011 42.33 8.2701 50.39 17.4001 53.3C19.7301 54.04 22.2401 54.45 24.8501 54.45C38.4301 54.45 49.4601 43.42 49.4601 29.84C49.4601 25.57 48.3801 21.57 46.4701 18.06C51.4801 17.11 58.0701 17.25 66.2601 18.46C72.7401 19.42 83.5701 22.32 98.7401 27.14C87.0101 36.51 65.9001 63.2 51.6201 82.26L43.0801 94.18C21.8101 125.44 11.5701 149.6 12.3501 166.65C13.4701 191.1 28.4201 202.67 57.2001 201.35C72.3601 200.66 86.3501 196.13 99.1601 187.77C105.04 183.97 110.37 179.73 115.12 175.04C118.2 172 121.01 168.94 123.6 165.86C124.73 171.73 127.29 176.7 131.33 180.74C137.02 186.43 144.6 189.27 154.08 189.27C169.02 189.27 181.68 183.21 192.07 171.07V173.86C192.07 175.42 192.68 177.21 193.89 179.26C197.68 185.93 205.11 189.27 216.18 189.27C224.9 189.27 233.85 186.01 243.02 179.49C247.12 176.53 250.98 173.2 254.62 169.48C258.26 165.76 261.56 161.97 264.52 158.1C266.03 156.12 267.57 153.95 269.13 151.6C276 141.68 282.99 130.55 290.11 118.18C296.48 119.62 304.21 120.57 313.31 121.02C303.98 126.18 296.29 132.7 290.22 140.58C287.26 144.37 284.93 148.28 283.23 152.29C281.52 156.31 280.67 160.39 280.67 164.52C280.67 168.65 281.54 172.28 283.29 175.38C288.37 184.63 298.38 189.26 313.32 189.26C322.12 189.26 331.1 186 340.28 179.48C344.37 176.52 348.24 173.19 351.88 169.47C354.28 167.02 356.51 164.54 358.61 162.03C359.94 180.26 371.98 189.38 394.76 189.38C407.5 189.38 419.4 186.12 430.48 179.6C435.56 176.64 440.19 173.29 444.36 169.53C446.61 167.51 448.7 165.46 450.67 163.41C451.31 165.88 452.19 168.21 453.35 170.39C460.55 183.74 476.21 190.41 500.33 190.41C512.31 190.41 523.72 187.76 534.57 182.45C539.57 180.02 544.26 177.12 548.62 173.75C552.43 170.8 555.9 167.63 559.07 164.25C559.69 166.41 560.5 168.46 561.53 170.4C568.73 183.75 584.39 190.42 608.51 190.42C620.49 190.42 631.9 187.77 642.75 182.46C647.75 180.03 652.44 177.13 656.8 173.76C660.38 170.99 663.66 168.02 666.67 164.87C668.37 171.08 671.5 176.27 676.08 180.41C682.75 186.4 691.21 189.4 701.45 189.4H701.68C757.26 189.4 792.26 171.92 806.67 136.96C807.43 135.22 807.81 133.74 807.81 132.52C807.81 129.49 806.1 128.08 802.69 128.31L802.66 128.28ZM214.54 113.5C210.18 119.87 205.08 126.54 199.24 133.52C188.24 146.64 178.69 153.2 170.58 153.2C163.22 153.2 159.55 148.8 159.55 140C159.55 129.31 165.47 119.94 177.3 111.91C189.81 103.42 205.55 99.09 224.51 98.94C222.23 102.28 218.92 107.13 214.56 113.5H214.54ZM500.32 111.22C505.7 104.24 512.04 100.75 519.32 100.75C524.93 100.75 527.74 103.8 527.74 109.91C527.74 116.02 524.06 121.34 516.71 125.89C509.73 130.14 501.39 132.83 491.69 133.97C492.29 125.48 495.18 117.89 500.33 111.22H500.32ZM608.5 111.22C613.88 104.24 620.22 100.75 627.5 100.75C633.11 100.75 635.92 103.8 635.92 109.91C635.92 116.02 632.24 121.34 624.89 125.89C617.91 130.14 609.57 132.83 599.87 133.97C600.47 125.48 603.36 117.89 608.51 111.22H608.5ZM749.77 131.7C747.65 134.66 745.18 137.41 742.37 139.95C739.56 142.49 736.61 144.71 733.5 146.6C730.39 148.5 727.2 149.99 723.94 151.09C720.68 152.19 717.47 152.74 714.33 152.74C711.19 152.74 708.62 151.62 706.65 149.39C704.68 147.15 703.69 144.4 703.69 141.14C703.69 137.88 704.18 133.86 705.17 129.08C708.58 121.34 713.96 114.71 721.32 109.18C724.73 106.53 728.37 104.42 732.24 102.87C736.11 101.32 739.92 100.54 743.67 100.54C747.42 100.54 750.82 102.13 753.85 105.32C755.67 107.22 756.58 109.98 756.58 113.62C756.58 119.31 754.31 125.33 749.76 131.7H749.77Z" fill="#004068"/>
</svg>
